<mxfile host="app.diagrams.net" modified="2022-10-28T02:33:11.624Z" agent="5.0 (Windows NT 10.0; Win64; x64) AppleWebKit/537.36 (KHTML, like Gecko) Chrome/106.0.0.0 Safari/537.36 Edg/106.0.1370.52" etag="Tyg0w7A0LQYI9PU11rKL" version="20.5.1" type="github">
  <diagram id="nzRdbRTfCIcVPSSkmYML" name="第 1 页">
    <mxGraphModel dx="813" dy="476" grid="1" gridSize="10" guides="1" tooltips="1" connect="1" arrows="1" fold="1" page="1" pageScale="1" pageWidth="1169" pageHeight="826" math="0" shadow="0">
      <root>
        <mxCell id="0" />
        <mxCell id="1" parent="0" />
        <mxCell id="2cxtGE5oNSHKg1bxKQbj-1" value="" style="shape=table;startSize=0;container=1;collapsible=0;childLayout=tableLayout;strokeColor=default;strokeWidth=1;fontSize=14;" vertex="1" parent="1">
          <mxGeometry x="380" y="350" width="570" height="215" as="geometry" />
        </mxCell>
        <mxCell id="2cxtGE5oNSHKg1bxKQbj-2" value="" style="shape=tableRow;horizontal=0;startSize=0;swimlaneHead=0;swimlaneBody=0;top=0;left=0;bottom=0;right=0;collapsible=0;dropTarget=0;fillColor=none;points=[[0,0.5],[1,0.5]];portConstraint=eastwest;strokeColor=default;strokeWidth=1;fontSize=14;" vertex="1" parent="2cxtGE5oNSHKg1bxKQbj-1">
          <mxGeometry width="570" height="55" as="geometry" />
        </mxCell>
        <mxCell id="2cxtGE5oNSHKg1bxKQbj-3" value="测试需求" style="shape=partialRectangle;html=1;whiteSpace=wrap;connectable=0;overflow=hidden;fillColor=none;top=0;left=0;bottom=0;right=0;pointerEvents=1;strokeColor=default;strokeWidth=1;fontSize=13;fontStyle=1" vertex="1" parent="2cxtGE5oNSHKg1bxKQbj-2">
          <mxGeometry width="144" height="55" as="geometry">
            <mxRectangle width="144" height="55" as="alternateBounds" />
          </mxGeometry>
        </mxCell>
        <mxCell id="2cxtGE5oNSHKg1bxKQbj-4" value="测试重点" style="shape=partialRectangle;html=1;whiteSpace=wrap;connectable=0;overflow=hidden;fillColor=none;top=0;left=0;bottom=0;right=0;pointerEvents=1;strokeColor=default;strokeWidth=1;fontSize=13;fontStyle=1" vertex="1" parent="2cxtGE5oNSHKg1bxKQbj-2">
          <mxGeometry x="144" width="141" height="55" as="geometry">
            <mxRectangle width="141" height="55" as="alternateBounds" />
          </mxGeometry>
        </mxCell>
        <mxCell id="2cxtGE5oNSHKg1bxKQbj-5" value="是否达成需求" style="shape=partialRectangle;html=1;whiteSpace=wrap;connectable=0;overflow=hidden;fillColor=none;top=0;left=0;bottom=0;right=0;pointerEvents=1;strokeColor=default;strokeWidth=1;fontSize=13;fontStyle=1" vertex="1" parent="2cxtGE5oNSHKg1bxKQbj-2">
          <mxGeometry x="285" width="144" height="55" as="geometry">
            <mxRectangle width="144" height="55" as="alternateBounds" />
          </mxGeometry>
        </mxCell>
        <mxCell id="2cxtGE5oNSHKg1bxKQbj-6" value="结果" style="shape=partialRectangle;html=1;whiteSpace=wrap;connectable=0;overflow=hidden;fillColor=none;top=0;left=0;bottom=0;right=0;pointerEvents=1;strokeColor=default;strokeWidth=1;fontSize=13;fontStyle=1" vertex="1" parent="2cxtGE5oNSHKg1bxKQbj-2">
          <mxGeometry x="429" width="141" height="55" as="geometry">
            <mxRectangle width="141" height="55" as="alternateBounds" />
          </mxGeometry>
        </mxCell>
        <mxCell id="2cxtGE5oNSHKg1bxKQbj-7" value="" style="shape=tableRow;horizontal=0;startSize=0;swimlaneHead=0;swimlaneBody=0;top=0;left=0;bottom=0;right=0;collapsible=0;dropTarget=0;fillColor=none;points=[[0,0.5],[1,0.5]];portConstraint=eastwest;strokeColor=default;strokeWidth=1;fontSize=14;" vertex="1" parent="2cxtGE5oNSHKg1bxKQbj-1">
          <mxGeometry y="55" width="570" height="20" as="geometry" />
        </mxCell>
        <mxCell id="2cxtGE5oNSHKg1bxKQbj-8" value="用户登录" style="shape=partialRectangle;html=1;whiteSpace=wrap;connectable=0;overflow=hidden;fillColor=none;top=0;left=0;bottom=0;right=0;pointerEvents=1;strokeColor=default;strokeWidth=1;fontSize=12;" vertex="1" parent="2cxtGE5oNSHKg1bxKQbj-7">
          <mxGeometry width="144" height="20" as="geometry">
            <mxRectangle width="144" height="20" as="alternateBounds" />
          </mxGeometry>
        </mxCell>
        <mxCell id="2cxtGE5oNSHKg1bxKQbj-9" value="输入正确账号密码" style="shape=partialRectangle;html=1;whiteSpace=wrap;connectable=0;overflow=hidden;fillColor=none;top=0;left=0;bottom=0;right=0;pointerEvents=1;strokeColor=default;strokeWidth=1;fontSize=12;" vertex="1" parent="2cxtGE5oNSHKg1bxKQbj-7">
          <mxGeometry x="144" width="141" height="20" as="geometry">
            <mxRectangle width="141" height="20" as="alternateBounds" />
          </mxGeometry>
        </mxCell>
        <mxCell id="2cxtGE5oNSHKg1bxKQbj-10" value="需求达成" style="shape=partialRectangle;html=1;whiteSpace=wrap;connectable=0;overflow=hidden;fillColor=none;top=0;left=0;bottom=0;right=0;pointerEvents=1;strokeColor=default;strokeWidth=1;fontSize=12;" vertex="1" parent="2cxtGE5oNSHKg1bxKQbj-7">
          <mxGeometry x="285" width="144" height="20" as="geometry">
            <mxRectangle width="144" height="20" as="alternateBounds" />
          </mxGeometry>
        </mxCell>
        <mxCell id="2cxtGE5oNSHKg1bxKQbj-11" value="通过" style="shape=partialRectangle;html=1;whiteSpace=wrap;connectable=0;overflow=hidden;fillColor=none;top=0;left=0;bottom=0;right=0;pointerEvents=1;strokeColor=default;strokeWidth=1;fontSize=12;" vertex="1" parent="2cxtGE5oNSHKg1bxKQbj-7">
          <mxGeometry x="429" width="141" height="20" as="geometry">
            <mxRectangle width="141" height="20" as="alternateBounds" />
          </mxGeometry>
        </mxCell>
        <mxCell id="2cxtGE5oNSHKg1bxKQbj-12" value="" style="shape=tableRow;horizontal=0;startSize=0;swimlaneHead=0;swimlaneBody=0;top=0;left=0;bottom=0;right=0;collapsible=0;dropTarget=0;fillColor=none;points=[[0,0.5],[1,0.5]];portConstraint=eastwest;strokeColor=default;strokeWidth=1;fontSize=14;" vertex="1" parent="2cxtGE5oNSHKg1bxKQbj-1">
          <mxGeometry y="75" width="570" height="20" as="geometry" />
        </mxCell>
        <mxCell id="2cxtGE5oNSHKg1bxKQbj-13" value="登录失败" style="shape=partialRectangle;html=1;whiteSpace=wrap;connectable=0;overflow=hidden;fillColor=none;top=0;left=0;bottom=0;right=0;pointerEvents=1;strokeColor=default;strokeWidth=1;fontSize=12;" vertex="1" parent="2cxtGE5oNSHKg1bxKQbj-12">
          <mxGeometry width="144" height="20" as="geometry">
            <mxRectangle width="144" height="20" as="alternateBounds" />
          </mxGeometry>
        </mxCell>
        <mxCell id="2cxtGE5oNSHKg1bxKQbj-14" value="输入错误账号密码" style="shape=partialRectangle;html=1;whiteSpace=wrap;connectable=0;overflow=hidden;fillColor=none;top=0;left=0;bottom=0;right=0;pointerEvents=1;strokeColor=default;strokeWidth=1;fontSize=12;" vertex="1" parent="2cxtGE5oNSHKg1bxKQbj-12">
          <mxGeometry x="144" width="141" height="20" as="geometry">
            <mxRectangle width="141" height="20" as="alternateBounds" />
          </mxGeometry>
        </mxCell>
        <mxCell id="2cxtGE5oNSHKg1bxKQbj-15" value="需求达成" style="shape=partialRectangle;html=1;whiteSpace=wrap;connectable=0;overflow=hidden;fillColor=none;top=0;left=0;bottom=0;right=0;pointerEvents=1;strokeColor=default;strokeWidth=1;fontSize=12;" vertex="1" parent="2cxtGE5oNSHKg1bxKQbj-12">
          <mxGeometry x="285" width="144" height="20" as="geometry">
            <mxRectangle width="144" height="20" as="alternateBounds" />
          </mxGeometry>
        </mxCell>
        <mxCell id="2cxtGE5oNSHKg1bxKQbj-16" value="通过" style="shape=partialRectangle;html=1;whiteSpace=wrap;connectable=0;overflow=hidden;fillColor=none;top=0;left=0;bottom=0;right=0;pointerEvents=1;strokeColor=default;strokeWidth=1;fontSize=12;" vertex="1" parent="2cxtGE5oNSHKg1bxKQbj-12">
          <mxGeometry x="429" width="141" height="20" as="geometry">
            <mxRectangle width="141" height="20" as="alternateBounds" />
          </mxGeometry>
        </mxCell>
        <mxCell id="2cxtGE5oNSHKg1bxKQbj-17" value="" style="shape=tableRow;horizontal=0;startSize=0;swimlaneHead=0;swimlaneBody=0;top=0;left=0;bottom=0;right=0;collapsible=0;dropTarget=0;fillColor=none;points=[[0,0.5],[1,0.5]];portConstraint=eastwest;strokeColor=default;strokeWidth=1;fontSize=14;" vertex="1" parent="2cxtGE5oNSHKg1bxKQbj-1">
          <mxGeometry y="95" width="570" height="20" as="geometry" />
        </mxCell>
        <mxCell id="2cxtGE5oNSHKg1bxKQbj-18" value="预约挂号" style="shape=partialRectangle;html=1;whiteSpace=wrap;connectable=0;overflow=hidden;fillColor=none;top=0;left=0;bottom=0;right=0;pointerEvents=1;strokeColor=default;strokeWidth=1;fontSize=12;" vertex="1" parent="2cxtGE5oNSHKg1bxKQbj-17">
          <mxGeometry width="144" height="20" as="geometry">
            <mxRectangle width="144" height="20" as="alternateBounds" />
          </mxGeometry>
        </mxCell>
        <mxCell id="2cxtGE5oNSHKg1bxKQbj-19" value="增删改查" style="shape=partialRectangle;html=1;whiteSpace=wrap;connectable=0;overflow=hidden;fillColor=none;top=0;left=0;bottom=0;right=0;pointerEvents=1;strokeColor=default;strokeWidth=1;fontSize=12;" vertex="1" parent="2cxtGE5oNSHKg1bxKQbj-17">
          <mxGeometry x="144" width="141" height="20" as="geometry">
            <mxRectangle width="141" height="20" as="alternateBounds" />
          </mxGeometry>
        </mxCell>
        <mxCell id="2cxtGE5oNSHKg1bxKQbj-20" value="需求达成" style="shape=partialRectangle;html=1;whiteSpace=wrap;connectable=0;overflow=hidden;fillColor=none;top=0;left=0;bottom=0;right=0;pointerEvents=1;strokeColor=default;strokeWidth=1;fontSize=12;" vertex="1" parent="2cxtGE5oNSHKg1bxKQbj-17">
          <mxGeometry x="285" width="144" height="20" as="geometry">
            <mxRectangle width="144" height="20" as="alternateBounds" />
          </mxGeometry>
        </mxCell>
        <mxCell id="2cxtGE5oNSHKg1bxKQbj-21" value="通过" style="shape=partialRectangle;html=1;whiteSpace=wrap;connectable=0;overflow=hidden;fillColor=none;top=0;left=0;bottom=0;right=0;pointerEvents=1;strokeColor=default;strokeWidth=1;fontSize=12;" vertex="1" parent="2cxtGE5oNSHKg1bxKQbj-17">
          <mxGeometry x="429" width="141" height="20" as="geometry">
            <mxRectangle width="141" height="20" as="alternateBounds" />
          </mxGeometry>
        </mxCell>
        <mxCell id="2cxtGE5oNSHKg1bxKQbj-22" style="shape=tableRow;horizontal=0;startSize=0;swimlaneHead=0;swimlaneBody=0;top=0;left=0;bottom=0;right=0;collapsible=0;dropTarget=0;fillColor=none;points=[[0,0.5],[1,0.5]];portConstraint=eastwest;strokeColor=default;strokeWidth=1;fontSize=14;" vertex="1" parent="2cxtGE5oNSHKg1bxKQbj-1">
          <mxGeometry y="115" width="570" height="20" as="geometry" />
        </mxCell>
        <mxCell id="2cxtGE5oNSHKg1bxKQbj-23" value="资讯管理" style="shape=partialRectangle;html=1;whiteSpace=wrap;connectable=0;overflow=hidden;fillColor=none;top=0;left=0;bottom=0;right=0;pointerEvents=1;strokeColor=default;strokeWidth=1;fontSize=12;" vertex="1" parent="2cxtGE5oNSHKg1bxKQbj-22">
          <mxGeometry width="144" height="20" as="geometry">
            <mxRectangle width="144" height="20" as="alternateBounds" />
          </mxGeometry>
        </mxCell>
        <mxCell id="2cxtGE5oNSHKg1bxKQbj-24" value="增删改查" style="shape=partialRectangle;html=1;whiteSpace=wrap;connectable=0;overflow=hidden;fillColor=none;top=0;left=0;bottom=0;right=0;pointerEvents=1;strokeColor=default;strokeWidth=1;fontSize=12;" vertex="1" parent="2cxtGE5oNSHKg1bxKQbj-22">
          <mxGeometry x="144" width="141" height="20" as="geometry">
            <mxRectangle width="141" height="20" as="alternateBounds" />
          </mxGeometry>
        </mxCell>
        <mxCell id="2cxtGE5oNSHKg1bxKQbj-25" value="需求达成" style="shape=partialRectangle;html=1;whiteSpace=wrap;connectable=0;overflow=hidden;fillColor=none;top=0;left=0;bottom=0;right=0;pointerEvents=1;strokeColor=default;strokeWidth=1;fontSize=12;" vertex="1" parent="2cxtGE5oNSHKg1bxKQbj-22">
          <mxGeometry x="285" width="144" height="20" as="geometry">
            <mxRectangle width="144" height="20" as="alternateBounds" />
          </mxGeometry>
        </mxCell>
        <mxCell id="2cxtGE5oNSHKg1bxKQbj-26" value="通过" style="shape=partialRectangle;html=1;whiteSpace=wrap;connectable=0;overflow=hidden;fillColor=none;top=0;left=0;bottom=0;right=0;pointerEvents=1;strokeColor=default;strokeWidth=1;fontSize=12;" vertex="1" parent="2cxtGE5oNSHKg1bxKQbj-22">
          <mxGeometry x="429" width="141" height="20" as="geometry">
            <mxRectangle width="141" height="20" as="alternateBounds" />
          </mxGeometry>
        </mxCell>
        <mxCell id="2cxtGE5oNSHKg1bxKQbj-27" style="shape=tableRow;horizontal=0;startSize=0;swimlaneHead=0;swimlaneBody=0;top=0;left=0;bottom=0;right=0;collapsible=0;dropTarget=0;fillColor=none;points=[[0,0.5],[1,0.5]];portConstraint=eastwest;strokeColor=default;strokeWidth=1;fontSize=14;" vertex="1" parent="2cxtGE5oNSHKg1bxKQbj-1">
          <mxGeometry y="135" width="570" height="20" as="geometry" />
        </mxCell>
        <mxCell id="2cxtGE5oNSHKg1bxKQbj-28" value="添加资讯评论" style="shape=partialRectangle;html=1;whiteSpace=wrap;connectable=0;overflow=hidden;fillColor=none;top=0;left=0;bottom=0;right=0;pointerEvents=1;strokeColor=default;strokeWidth=1;fontSize=12;" vertex="1" parent="2cxtGE5oNSHKg1bxKQbj-27">
          <mxGeometry width="144" height="20" as="geometry">
            <mxRectangle width="144" height="20" as="alternateBounds" />
          </mxGeometry>
        </mxCell>
        <mxCell id="2cxtGE5oNSHKg1bxKQbj-29" value="增删改查" style="shape=partialRectangle;html=1;whiteSpace=wrap;connectable=0;overflow=hidden;fillColor=none;top=0;left=0;bottom=0;right=0;pointerEvents=1;strokeColor=default;strokeWidth=1;fontSize=12;" vertex="1" parent="2cxtGE5oNSHKg1bxKQbj-27">
          <mxGeometry x="144" width="141" height="20" as="geometry">
            <mxRectangle width="141" height="20" as="alternateBounds" />
          </mxGeometry>
        </mxCell>
        <mxCell id="2cxtGE5oNSHKg1bxKQbj-30" value="需求达成" style="shape=partialRectangle;html=1;whiteSpace=wrap;connectable=0;overflow=hidden;fillColor=none;top=0;left=0;bottom=0;right=0;pointerEvents=1;strokeColor=default;strokeWidth=1;fontSize=12;" vertex="1" parent="2cxtGE5oNSHKg1bxKQbj-27">
          <mxGeometry x="285" width="144" height="20" as="geometry">
            <mxRectangle width="144" height="20" as="alternateBounds" />
          </mxGeometry>
        </mxCell>
        <mxCell id="2cxtGE5oNSHKg1bxKQbj-31" value="通过" style="shape=partialRectangle;html=1;whiteSpace=wrap;connectable=0;overflow=hidden;fillColor=none;top=0;left=0;bottom=0;right=0;pointerEvents=1;strokeColor=default;strokeWidth=1;fontSize=12;" vertex="1" parent="2cxtGE5oNSHKg1bxKQbj-27">
          <mxGeometry x="429" width="141" height="20" as="geometry">
            <mxRectangle width="141" height="20" as="alternateBounds" />
          </mxGeometry>
        </mxCell>
        <mxCell id="2cxtGE5oNSHKg1bxKQbj-32" style="shape=tableRow;horizontal=0;startSize=0;swimlaneHead=0;swimlaneBody=0;top=0;left=0;bottom=0;right=0;collapsible=0;dropTarget=0;fillColor=none;points=[[0,0.5],[1,0.5]];portConstraint=eastwest;strokeColor=default;strokeWidth=1;fontSize=14;" vertex="1" parent="2cxtGE5oNSHKg1bxKQbj-1">
          <mxGeometry y="155" width="570" height="20" as="geometry" />
        </mxCell>
        <mxCell id="2cxtGE5oNSHKg1bxKQbj-33" value="医院信息管理" style="shape=partialRectangle;html=1;whiteSpace=wrap;connectable=0;overflow=hidden;fillColor=none;top=0;left=0;bottom=0;right=0;pointerEvents=1;strokeColor=default;strokeWidth=1;fontSize=12;" vertex="1" parent="2cxtGE5oNSHKg1bxKQbj-32">
          <mxGeometry width="144" height="20" as="geometry">
            <mxRectangle width="144" height="20" as="alternateBounds" />
          </mxGeometry>
        </mxCell>
        <mxCell id="2cxtGE5oNSHKg1bxKQbj-34" value="增删改查" style="shape=partialRectangle;html=1;whiteSpace=wrap;connectable=0;overflow=hidden;fillColor=none;top=0;left=0;bottom=0;right=0;pointerEvents=1;strokeColor=default;strokeWidth=1;fontSize=12;" vertex="1" parent="2cxtGE5oNSHKg1bxKQbj-32">
          <mxGeometry x="144" width="141" height="20" as="geometry">
            <mxRectangle width="141" height="20" as="alternateBounds" />
          </mxGeometry>
        </mxCell>
        <mxCell id="2cxtGE5oNSHKg1bxKQbj-35" value="需求达成" style="shape=partialRectangle;html=1;whiteSpace=wrap;connectable=0;overflow=hidden;fillColor=none;top=0;left=0;bottom=0;right=0;pointerEvents=1;strokeColor=default;strokeWidth=1;fontSize=12;" vertex="1" parent="2cxtGE5oNSHKg1bxKQbj-32">
          <mxGeometry x="285" width="144" height="20" as="geometry">
            <mxRectangle width="144" height="20" as="alternateBounds" />
          </mxGeometry>
        </mxCell>
        <mxCell id="2cxtGE5oNSHKg1bxKQbj-36" value="通过" style="shape=partialRectangle;html=1;whiteSpace=wrap;connectable=0;overflow=hidden;fillColor=none;top=0;left=0;bottom=0;right=0;pointerEvents=1;strokeColor=default;strokeWidth=1;fontSize=12;" vertex="1" parent="2cxtGE5oNSHKg1bxKQbj-32">
          <mxGeometry x="429" width="141" height="20" as="geometry">
            <mxRectangle width="141" height="20" as="alternateBounds" />
          </mxGeometry>
        </mxCell>
        <mxCell id="2cxtGE5oNSHKg1bxKQbj-37" style="shape=tableRow;horizontal=0;startSize=0;swimlaneHead=0;swimlaneBody=0;top=0;left=0;bottom=0;right=0;collapsible=0;dropTarget=0;fillColor=none;points=[[0,0.5],[1,0.5]];portConstraint=eastwest;strokeColor=default;strokeWidth=1;fontSize=14;" vertex="1" parent="2cxtGE5oNSHKg1bxKQbj-1">
          <mxGeometry y="175" width="570" height="20" as="geometry" />
        </mxCell>
        <mxCell id="2cxtGE5oNSHKg1bxKQbj-38" value="待办事项管理" style="shape=partialRectangle;html=1;whiteSpace=wrap;connectable=0;overflow=hidden;fillColor=none;top=0;left=0;bottom=0;right=0;pointerEvents=1;strokeColor=default;strokeWidth=1;fontSize=12;" vertex="1" parent="2cxtGE5oNSHKg1bxKQbj-37">
          <mxGeometry width="144" height="20" as="geometry">
            <mxRectangle width="144" height="20" as="alternateBounds" />
          </mxGeometry>
        </mxCell>
        <mxCell id="2cxtGE5oNSHKg1bxKQbj-39" value="增删改查" style="shape=partialRectangle;html=1;whiteSpace=wrap;connectable=0;overflow=hidden;fillColor=none;top=0;left=0;bottom=0;right=0;pointerEvents=1;strokeColor=default;strokeWidth=1;fontSize=12;" vertex="1" parent="2cxtGE5oNSHKg1bxKQbj-37">
          <mxGeometry x="144" width="141" height="20" as="geometry">
            <mxRectangle width="141" height="20" as="alternateBounds" />
          </mxGeometry>
        </mxCell>
        <mxCell id="2cxtGE5oNSHKg1bxKQbj-40" value="需求达成" style="shape=partialRectangle;html=1;whiteSpace=wrap;connectable=0;overflow=hidden;fillColor=none;top=0;left=0;bottom=0;right=0;pointerEvents=1;strokeColor=default;strokeWidth=1;fontSize=12;" vertex="1" parent="2cxtGE5oNSHKg1bxKQbj-37">
          <mxGeometry x="285" width="144" height="20" as="geometry">
            <mxRectangle width="144" height="20" as="alternateBounds" />
          </mxGeometry>
        </mxCell>
        <mxCell id="2cxtGE5oNSHKg1bxKQbj-41" value="通过" style="shape=partialRectangle;html=1;whiteSpace=wrap;connectable=0;overflow=hidden;fillColor=none;top=0;left=0;bottom=0;right=0;pointerEvents=1;strokeColor=default;strokeWidth=1;fontSize=12;" vertex="1" parent="2cxtGE5oNSHKg1bxKQbj-37">
          <mxGeometry x="429" width="141" height="20" as="geometry">
            <mxRectangle width="141" height="20" as="alternateBounds" />
          </mxGeometry>
        </mxCell>
        <mxCell id="2cxtGE5oNSHKg1bxKQbj-42" style="shape=tableRow;horizontal=0;startSize=0;swimlaneHead=0;swimlaneBody=0;top=0;left=0;bottom=0;right=0;collapsible=0;dropTarget=0;fillColor=none;points=[[0,0.5],[1,0.5]];portConstraint=eastwest;strokeColor=default;strokeWidth=1;fontSize=14;" vertex="1" parent="2cxtGE5oNSHKg1bxKQbj-1">
          <mxGeometry y="195" width="570" height="20" as="geometry" />
        </mxCell>
        <mxCell id="2cxtGE5oNSHKg1bxKQbj-43" value="用户信息修改" style="shape=partialRectangle;html=1;whiteSpace=wrap;connectable=0;overflow=hidden;fillColor=none;top=0;left=0;bottom=0;right=0;pointerEvents=1;strokeColor=default;strokeWidth=1;fontSize=12;" vertex="1" parent="2cxtGE5oNSHKg1bxKQbj-42">
          <mxGeometry width="144" height="20" as="geometry">
            <mxRectangle width="144" height="20" as="alternateBounds" />
          </mxGeometry>
        </mxCell>
        <mxCell id="2cxtGE5oNSHKg1bxKQbj-44" value="是否修改成功" style="shape=partialRectangle;html=1;whiteSpace=wrap;connectable=0;overflow=hidden;fillColor=none;top=0;left=0;bottom=0;right=0;pointerEvents=1;strokeColor=default;strokeWidth=1;fontSize=12;" vertex="1" parent="2cxtGE5oNSHKg1bxKQbj-42">
          <mxGeometry x="144" width="141" height="20" as="geometry">
            <mxRectangle width="141" height="20" as="alternateBounds" />
          </mxGeometry>
        </mxCell>
        <mxCell id="2cxtGE5oNSHKg1bxKQbj-45" value="需求达成" style="shape=partialRectangle;html=1;whiteSpace=wrap;connectable=0;overflow=hidden;fillColor=none;top=0;left=0;bottom=0;right=0;pointerEvents=1;strokeColor=default;strokeWidth=1;fontSize=12;" vertex="1" parent="2cxtGE5oNSHKg1bxKQbj-42">
          <mxGeometry x="285" width="144" height="20" as="geometry">
            <mxRectangle width="144" height="20" as="alternateBounds" />
          </mxGeometry>
        </mxCell>
        <mxCell id="2cxtGE5oNSHKg1bxKQbj-46" value="通过" style="shape=partialRectangle;html=1;whiteSpace=wrap;connectable=0;overflow=hidden;fillColor=none;top=0;left=0;bottom=0;right=0;pointerEvents=1;strokeColor=default;strokeWidth=1;fontSize=12;" vertex="1" parent="2cxtGE5oNSHKg1bxKQbj-42">
          <mxGeometry x="429" width="141" height="20" as="geometry">
            <mxRectangle width="141" height="20" as="alternateBounds" />
          </mxGeometry>
        </mxCell>
      </root>
    </mxGraphModel>
  </diagram>
</mxfile>
